<?xml version="1.0" encoding="UTF-8"?>
<!DOCTYPE svg PUBLIC "-//W3C//DTD SVG 1.1//EN" "http://www.w3.org/Graphics/SVG/1.1/DTD/svg11.dtd">
<svg xmlns="http://www.w3.org/2000/svg" version="1.1" width="2200px" height="1100px" style="shape-rendering:geometricPrecision; text-rendering:geometricPrecision; image-rendering:optimizeQuality; fill-rule:evenodd; clip-rule:evenodd" xmlns:xlink="http://www.w3.org/1999/xlink">
<g><path style="opacity:1" fill="#0f256e" d="M -0.5,-0.5 C 732.833,-0.5 1466.17,-0.5 2199.5,-0.5C 2199.5,366.167 2199.5,732.833 2199.5,1099.5C 1466.17,1099.5 732.833,1099.5 -0.5,1099.5C -0.5,732.833 -0.5,366.167 -0.5,-0.5 Z"/></g>
<g><path style="opacity:1" fill="#00cb82" d="M 822.5,199.5 C 821.833,199.5 821.5,199.833 821.5,200.5C 819.661,199.492 818.328,197.992 817.5,196C 668.499,195.833 519.499,195.333 370.5,194.5C 519.832,193.333 669.166,193.167 818.5,194C 819.665,195.992 820.998,197.825 822.5,199.5 Z"/></g>
<g><path style="opacity:1" fill="#00cb82" d="M 1364.5,195.5 C 1363.83,195.5 1363.17,195.5 1362.5,195.5C 1362.61,194.883 1362.94,194.383 1363.5,194C 1518.5,193.167 1673.5,193.333 1828.5,194.5C 1673.83,195.5 1519.17,195.833 1364.5,195.5 Z"/></g>
<g><path style="opacity:1" fill="#09b780" d="M 1362.5,195.5 C 1363.17,195.5 1363.83,195.5 1364.5,195.5C 1306.85,271.143 1248.85,346.476 1190.5,421.5C 1189.83,421.5 1189.5,421.167 1189.5,420.5C 1246.79,345.21 1304.46,270.21 1362.5,195.5 Z"/></g>
<g><path style="opacity:1" fill="#09b780" d="M 822.5,199.5 C 879.398,272.948 936.064,346.614 992.5,420.5C 991.833,420.5 991.5,420.833 991.5,421.5C 934.109,348.383 877.443,274.716 821.5,200.5C 821.5,199.833 821.833,199.5 822.5,199.5 Z"/></g>
<g><path style="opacity:1" fill="#03c582" d="M 1189.5,420.5 C 1189.5,421.167 1189.83,421.5 1190.5,421.5C 1211.38,438.539 1227.55,459.206 1239,483.5C 1243.28,493.166 1246.44,503.166 1248.5,513.5C 1249.15,515.086 1249.65,516.753 1250,518.5C 1250.83,495.663 1250.66,472.996 1249.5,450.5C 1247.18,450.008 1245.18,449.008 1243.5,447.5C 1243.5,446.833 1243.83,446.5 1244.5,446.5C 1248.06,448.485 1251.73,448.818 1255.5,447.5C 1256.49,447.328 1257.16,447.662 1257.5,448.5C 1256.19,449.153 1254.86,449.82 1253.5,450.5C 1252.5,476.491 1252.17,502.491 1252.5,528.5C 1259.17,528.5 1265.83,528.5 1272.5,528.5C 1272.5,542.833 1272.5,557.167 1272.5,571.5C 1265.83,571.5 1259.17,571.5 1252.5,571.5C 1252.5,597.5 1252.5,623.5 1252.5,649.5C 1254.55,649.402 1256.22,650.069 1257.5,651.5C 1257.5,652.167 1257.17,652.5 1256.5,652.5C 1250.51,650.327 1245.51,651.661 1241.5,656.5C 1241.5,655.833 1241.17,655.5 1240.5,655.5C 1242.63,652.263 1245.63,650.263 1249.5,649.5C 1250.66,626.67 1250.83,603.67 1250,580.5C 1249.19,582.436 1248.69,584.436 1248.5,586.5C 1236.81,634.688 1209.14,670.522 1165.5,694C 1148.97,702.011 1131.63,707.511 1113.5,710.5C 1112.5,717.468 1112.17,724.468 1112.5,731.5C 1098.17,731.5 1083.83,731.5 1069.5,731.5C 1069.5,724.5 1069.5,717.5 1069.5,710.5C 1008.77,700.585 965.933,667.585 941,611.5C 937.791,603.706 935.291,595.706 933.5,587.5C 933.005,585.518 932.505,583.518 932,581.5C 931.17,604.337 931.337,627.004 932.5,649.5C 943.285,653.069 946.451,660.069 942,670.5C 933.984,678.69 926.318,678.356 919,669.5C 915.417,660.677 917.917,654.344 926.5,650.5C 927.833,650.5 929.167,650.5 930.5,650.5C 930.831,623.995 930.498,597.661 929.5,571.5C 922.833,571.5 916.167,571.5 909.5,571.5C 909.5,557.167 909.5,542.833 909.5,528.5C 916.5,528.5 923.5,528.5 930.5,528.5C 930.831,502.328 930.498,476.328 929.5,450.5C 927.597,450.204 925.93,449.537 924.5,448.5C 924.842,447.662 925.508,447.328 926.5,447.5C 930.846,449.031 934.846,448.365 938.5,445.5C 939.167,445.5 939.5,445.833 939.5,446.5C 937.551,448.563 935.218,449.896 932.5,450.5C 931.337,472.329 931.17,494.329 932,516.5C 932.791,515.255 933.291,513.922 933.5,512.5C 942.516,475.441 961.849,445.107 991.5,421.5C 991.5,420.833 991.833,420.5 992.5,420.5C 1015.48,403.725 1041.14,393.391 1069.5,389.5C 1069.5,382.5 1069.5,375.5 1069.5,368.5C 1083.83,368.5 1098.17,368.5 1112.5,368.5C 1112.5,375.5 1112.5,382.5 1112.5,389.5C 1140.82,393.501 1166.48,403.834 1189.5,420.5 Z"/></g>
<g><path style="opacity:1" fill="#0f246e" d="M 1073.5,372.5 C 1085.17,372.5 1096.83,372.5 1108.5,372.5C 1108.5,384.167 1108.5,395.833 1108.5,407.5C 1096.83,407.5 1085.17,407.5 1073.5,407.5C 1073.5,395.833 1073.5,384.167 1073.5,372.5 Z"/></g>
<g><path style="opacity:1" fill="#0b9bfe" d="M 1468.5,374.5 C 1521.83,374.5 1575.17,374.5 1628.5,374.5C 1628.5,418.833 1628.5,463.167 1628.5,507.5C 1628.17,507.5 1627.83,507.5 1627.5,507.5C 1627.5,463.5 1627.5,419.5 1627.5,375.5C 1575,375.168 1522.66,375.501 1470.5,376.5C 1470.83,390.183 1470.5,403.85 1469.5,417.5C 1468.5,403.182 1468.17,388.849 1468.5,374.5 Z"/></g>
<g><path style="opacity:1" fill="#0c7eda" d="M 1468.5,374.5 C 1522,373.501 1575.66,373.168 1629.5,373.5C 1629.83,418.336 1629.5,463.003 1628.5,507.5C 1628.5,463.167 1628.5,418.833 1628.5,374.5C 1575.17,374.5 1521.83,374.5 1468.5,374.5 Z"/></g>
<g><path style="opacity:1" fill="#0e4392" d="M 1470.5,376.5 C 1522.66,375.501 1575,375.168 1627.5,375.5C 1627.5,419.5 1627.5,463.5 1627.5,507.5C 1626.5,464.003 1626.17,420.337 1626.5,376.5C 1574.5,376.5 1522.5,376.5 1470.5,376.5 Z"/></g>
<g><path style="opacity:1" fill="#0c7dd9" d="M 369.5,380.5 C 369.5,380.167 369.5,379.833 369.5,379.5C 525.167,379.5 680.833,379.5 836.5,379.5C 836.5,467.5 836.5,555.5 836.5,643.5C 823.5,643.5 810.5,643.5 797.5,643.5C 809.989,642.505 822.656,642.171 835.5,642.5C 835.5,555.167 835.5,467.833 835.5,380.5C 680.167,380.5 524.833,380.5 369.5,380.5 Z"/></g>
<g><path style="opacity:1" fill="#0c95f6" d="M 369.5,380.5 C 524.833,380.5 680.167,380.5 835.5,380.5C 835.5,467.833 835.5,555.167 835.5,642.5C 822.656,642.171 809.989,642.505 797.5,643.5C 797.667,662.503 797.5,681.503 797,700.5C 796.235,703.196 795.068,705.696 793.5,708C 807.829,708.5 822.163,708.667 836.5,708.5C 836.5,709.833 836.5,711.167 836.5,712.5C 680.833,712.5 525.167,712.5 369.5,712.5C 369.5,711.167 369.5,709.833 369.5,708.5C 419.838,708.833 470.171,708.5 520.5,707.5C 518.613,702.775 519.946,699.275 524.5,697C 546.768,688.8 569.102,680.8 591.5,673C 593.049,671.786 594.215,670.286 595,668.5C 596.332,647.167 596.999,647.167 597,668.5C 596.654,670.848 595.487,672.681 593.5,674C 570.157,682.673 546.823,691.34 523.5,700C 520.9,702.459 520.9,704.959 523.5,707.5C 526.134,708.516 528.8,708.516 531.5,707.5C 534.097,707.721 534.097,708.221 531.5,709C 578.833,709.667 626.167,709.667 673.5,709C 672.473,708.487 671.473,707.987 670.5,707.5C 669.041,707.567 667.708,707.234 666.5,706.5C 666.842,705.662 667.508,705.328 668.5,705.5C 672.674,707.283 677.007,708.117 681.5,708C 684.167,705.333 684.167,702.667 681.5,700C 658.843,691.673 636.177,683.34 613.5,675C 611.622,673.457 610.122,671.624 609,669.5C 609.001,646.833 609.668,646.833 611,669.5C 612.167,670.667 613.333,671.833 614.5,673C 637.167,681.333 659.833,689.667 682.5,698C 683.667,698.5 684.5,699.333 685,700.5C 685.769,703.099 685.602,705.599 684.5,708C 700.167,708.667 715.833,708.667 731.5,708C 729.959,706.421 728.792,704.587 728,702.5C 727.333,663.167 727.333,623.833 728,584.5C 729.892,580.942 732.725,578.442 736.5,577C 753.833,576.333 771.167,576.333 788.5,577C 792.667,578.5 795.5,581.333 797,585.5C 797.5,603.164 797.667,620.83 797.5,638.5C 808.988,639.495 820.655,639.828 832.5,639.5C 832.5,554.167 832.5,468.833 832.5,383.5C 679.332,383.167 526.332,383.5 373.5,384.5C 373.5,469.167 373.5,553.833 373.5,638.5C 488.665,639.5 603.999,639.833 719.5,639.5C 719.5,640.5 719.5,641.5 719.5,642.5C 602.833,642.5 486.167,642.5 369.5,642.5C 369.5,555.167 369.5,467.833 369.5,380.5 Z"/></g>
<g><path style="opacity:1" fill="#0e4393" d="M 373.5,384.5 C 526.332,383.5 679.332,383.167 832.5,383.5C 832.5,468.833 832.5,554.167 832.5,639.5C 820.655,639.828 808.988,639.495 797.5,638.5C 808.833,638.5 820.167,638.5 831.5,638.5C 831.5,553.833 831.5,469.167 831.5,384.5C 678.833,384.5 526.167,384.5 373.5,384.5 Z"/></g>
<g><path style="opacity:1" fill="#0b4e72" d="M 1066.5,394.5 C 1067.21,393.596 1068.21,393.263 1069.5,393.5C 1069.5,399.5 1069.5,405.5 1069.5,411.5C 1069.15,405.594 1068.15,399.927 1066.5,394.5 Z"/></g>
<g><path style="opacity:1" fill="#0f256e" d="M 1246.5,525.5 C 1241.07,527.146 1235.41,528.146 1229.5,528.5C 1228.5,542.657 1228.17,556.99 1228.5,571.5C 1234.5,571.5 1240.5,571.5 1246.5,571.5C 1237.39,629.234 1206.39,670.401 1153.5,695C 1140.33,700.541 1126.67,704.041 1112.5,705.5C 1112.5,699.833 1112.5,694.167 1112.5,688.5C 1098.17,688.5 1083.83,688.5 1069.5,688.5C 1068.51,693.975 1068.18,699.642 1068.5,705.5C 1067.17,705.5 1065.83,705.5 1064.5,705.5C 1011.15,695.306 972.314,665.972 948,617.5C 941.571,602.716 937.071,587.382 934.5,571.5C 940.5,571.5 946.5,571.5 952.5,571.5C 952.5,557.167 952.5,542.833 952.5,528.5C 946.594,528.146 940.927,527.146 935.5,525.5C 944.027,474.598 970.694,436.431 1015.5,411C 1031.4,402.044 1048.4,396.544 1066.5,394.5C 1068.15,399.927 1069.15,405.594 1069.5,411.5C 1083.83,411.5 1098.17,411.5 1112.5,411.5C 1112.33,405.491 1112.5,399.491 1113,393.5C 1174.74,404.529 1217.07,439.196 1240,497.5C 1243.34,506.571 1245.51,515.905 1246.5,525.5 Z"/></g>
<g><path style="opacity:1" fill="#0d8ae9" d="M 405.5,401.5 C 505.581,401.005 605.581,401.505 705.5,403C 706.664,466.43 706.831,529.93 706,593.5C 705.5,594 705,594.5 704.5,595C 604.5,595.667 504.5,595.667 404.5,595C 404,594.5 403.5,594 403,593.5C 402.333,530.167 402.333,466.833 403,403.5C 403.995,402.934 404.828,402.267 405.5,401.5 Z"/></g>
<g><path style="opacity:1" fill="#e2e4ed" d="M 1760.5,410.5 C 1760.5,419.167 1760.5,427.833 1760.5,436.5C 1783.17,436.5 1805.83,436.5 1828.5,436.5C 1828.5,503.5 1828.5,570.5 1828.5,637.5C 1772.83,637.5 1717.17,637.5 1661.5,637.5C 1661.5,570.5 1661.5,503.5 1661.5,436.5C 1671.83,436.5 1682.17,436.5 1692.5,436.5C 1683.22,438.473 1673.56,439.14 1663.5,438.5C 1663.5,504.167 1663.5,569.833 1663.5,635.5C 1689.5,635.667 1715.5,635.5 1741.5,635C 1749.87,632.969 1755.37,627.802 1758,619.5C 1760.01,604.695 1753.85,595.195 1739.5,591C 1727.17,590.5 1714.84,590.333 1702.5,590.5C 1702.5,523.167 1702.5,455.833 1702.5,388.5C 1715.84,388.333 1729.17,388.5 1742.5,389C 1752.72,392.711 1758.72,399.877 1760.5,410.5 Z"/></g>
<g><path style="opacity:1" fill="#0f256e" d="M 1758.5,411.5 C 1758.83,475.002 1758.5,538.336 1757.5,601.5C 1754.01,594.527 1748.34,590.361 1740.5,589C 1728.5,588.5 1716.5,588.333 1704.5,588.5C 1704.5,522.5 1704.5,456.5 1704.5,390.5C 1716.17,390.333 1727.84,390.5 1739.5,391C 1750.51,393.51 1756.84,400.344 1758.5,411.5 Z"/></g>
<g><path style="opacity:1" fill="#0f256e" d="M 404.5,404.5 C 504.5,404.5 604.5,404.5 704.5,404.5C 704.5,409.5 704.5,414.5 704.5,419.5C 604.5,419.5 504.5,419.5 404.5,419.5C 404.5,414.5 404.5,409.5 404.5,404.5 Z"/></g>
<g><path style="opacity:1" fill="#0b95f7" d="M 410.5,408.5 C 415.159,408.015 416.492,409.848 414.5,414C 409.728,414.81 408.395,412.977 410.5,408.5 Z"/></g>
<g><path style="opacity:1" fill="#0c90f0" d="M 419.5,408.5 C 424.159,408.015 425.492,409.848 423.5,414C 418.001,414.806 416.668,412.973 419.5,408.5 Z"/></g>
<g><path style="opacity:1" fill="#0c92f3" d="M 428.5,408.5 C 432.485,408.629 433.818,410.463 432.5,414C 426.546,415.227 425.212,413.394 428.5,408.5 Z"/></g>
<g><path style="opacity:1" fill="#c3c8da" d="M 1758.5,411.5 C 1759.67,475.332 1759.83,539.332 1759,603.5C 1758.28,602.956 1757.78,602.289 1757.5,601.5C 1758.5,538.336 1758.83,475.002 1758.5,411.5 Z"/></g>
<g><path style="opacity:1" fill="#10256e" d="M 404.5,421.5 C 504.5,421.5 604.5,421.5 704.5,421.5C 704.667,478.501 704.5,535.501 704,592.5C 654.237,593.166 604.403,593.499 554.5,593.5C 504.597,593.499 454.763,593.166 405,592.5C 404.5,535.501 404.333,478.501 404.5,421.5 Z"/></g>
<g><path style="opacity:1" fill="#11296e" d="M 938.5,445.5 C 934.846,448.365 930.846,449.031 926.5,447.5C 919.167,442.832 917.833,436.832 922.5,429.5C 926.518,425.264 931.185,424.43 936.5,427C 943.657,432.446 944.324,438.613 938.5,445.5 Z"/></g>
<g><path style="opacity:1" fill="#11286e" d="M 1255.5,447.5 C 1251.73,448.818 1248.06,448.485 1244.5,446.5C 1236.31,436.279 1238.48,429.279 1251,425.5C 1260.63,427.461 1263.96,433.128 1261,442.5C 1259.27,444.402 1257.44,446.069 1255.5,447.5 Z"/></g>
<g><path style="opacity:1" fill="#0c91f1" d="M 1584.5,430.5 C 1584.5,460.5 1584.5,490.5 1584.5,520.5C 1609.83,520.5 1635.17,520.5 1660.5,520.5C 1660.5,521.833 1660.5,523.167 1660.5,524.5C 1591.17,524.5 1521.83,524.5 1452.5,524.5C 1452.5,588.167 1452.5,651.833 1452.5,715.5C 1565.17,715.5 1677.83,715.5 1790.5,715.5C 1790.5,693.5 1790.5,671.5 1790.5,649.5C 1791.83,649.5 1793.17,649.5 1794.5,649.5C 1794.5,672.833 1794.5,696.167 1794.5,719.5C 1679.17,719.5 1563.83,719.5 1448.5,719.5C 1448.5,653.167 1448.5,586.833 1448.5,520.5C 1493.17,520.5 1537.83,520.5 1582.5,520.5C 1583.5,496.339 1583.83,472.006 1583.5,447.5C 1498.33,447.167 1413.33,447.501 1328.5,448.5C 1328.33,510.501 1328.5,572.501 1329,634.5C 1363.76,635.496 1398.59,635.829 1433.5,635.5C 1433.5,636.5 1433.5,637.5 1433.5,638.5C 1399.17,638.667 1364.83,638.5 1330.5,638C 1329.58,637.626 1328.75,637.126 1328,636.5C 1326.34,567.582 1326.01,498.582 1327,429.5C 1327.83,428.667 1328.67,427.833 1329.5,427C 1413.5,426.333 1497.5,426.333 1581.5,427C 1582.71,428.039 1583.71,429.206 1584.5,430.5 Z"/></g>
<g><path style="opacity:1" fill="#0f2670" d="M 1582.5,431.5 C 1582.5,436.167 1582.5,440.833 1582.5,445.5C 1497.83,445.5 1413.17,445.5 1328.5,445.5C 1328.33,440.489 1328.5,435.489 1329,430.5C 1329.5,430 1330,429.5 1330.5,429C 1413.83,428.333 1497.17,428.333 1580.5,429C 1581.38,429.708 1582.05,430.542 1582.5,431.5 Z"/></g>
<g><path style="opacity:1" fill="#0bb480" d="M 1257.5,448.5 C 1257.16,447.662 1256.49,447.328 1255.5,447.5C 1257.44,446.069 1259.27,444.402 1261,442.5C 1263.96,433.128 1260.63,427.461 1251,425.5C 1238.48,429.279 1236.31,436.279 1244.5,446.5C 1243.83,446.5 1243.5,446.833 1243.5,447.5C 1235.33,439.771 1235.67,432.271 1244.5,425C 1258.62,421.454 1265.12,426.954 1264,441.5C 1262.33,444.331 1260.17,446.664 1257.5,448.5 Z"/></g>
<g><path style="opacity:1" fill="#c3c8da" d="M 441.5,431.5 C 440.503,452.66 440.169,473.993 440.5,495.5C 439.172,473.996 439.172,452.33 440.5,430.5C 441.107,430.624 441.44,430.957 441.5,431.5 Z"/></g>
<g><path style="opacity:1" fill="#fefffe" d="M 441.5,431.5 C 441.5,452.167 441.5,472.833 441.5,493.5C 491.167,493.5 540.833,493.5 590.5,493.5C 590.5,472.833 590.5,452.167 590.5,431.5C 591.497,452.66 591.831,473.993 591.5,495.5C 541.167,495.5 490.833,495.5 440.5,495.5C 440.169,473.993 440.503,452.66 441.5,431.5 Z"/></g>
<g><path style="opacity:1" fill="#c3c8da" d="M 590.5,431.5 C 590.56,430.957 590.893,430.624 591.5,430.5C 592.828,452.33 592.828,473.996 591.5,495.5C 591.831,473.993 591.497,452.66 590.5,431.5 Z"/></g>
<g><path style="opacity:1" fill="#fefefe" d="M 603.5,431.5 C 604.167,471.167 604.833,510.833 605.5,550.5C 626.167,550.5 646.833,550.5 667.5,550.5C 667.167,510.494 667.5,470.494 668.5,430.5C 669.5,471.161 669.833,511.828 669.5,552.5C 647.5,552.5 625.5,552.5 603.5,552.5C 603.5,512.167 603.5,471.833 603.5,431.5 Z"/></g>
<g><path style="opacity:1" fill="#c3c8da" d="M 603.5,431.5 C 603.56,430.957 603.893,430.624 604.5,430.5C 605.5,470.494 605.833,510.494 605.5,550.5C 604.833,510.833 604.167,471.167 603.5,431.5 Z"/></g>
<g><path style="opacity:1" fill="#0ab680" d="M 939.5,446.5 C 939.5,445.833 939.167,445.5 938.5,445.5C 944.324,438.613 943.657,432.446 936.5,427C 931.185,424.43 926.518,425.264 922.5,429.5C 917.833,436.832 919.167,442.832 926.5,447.5C 925.508,447.328 924.842,447.662 924.5,448.5C 916.723,442.623 915.556,435.623 921,427.5C 929.37,421.429 936.703,422.429 943,430.5C 945.722,436.777 944.555,442.111 939.5,446.5 Z"/></g>
<g><path style="opacity:1" fill="#0b96f8" d="M 1334.5,434.5 C 1339.12,433.408 1340.96,435.075 1340,439.5C 1334.42,441.752 1332.59,440.085 1334.5,434.5 Z"/></g>
<g><path style="opacity:1" fill="#0c93f5" d="M 1345.5,433.5 C 1347.84,433.506 1349.18,434.673 1349.5,437C 1347.82,442.686 1345.82,442.852 1343.5,437.5C 1343.75,435.927 1344.42,434.594 1345.5,433.5 Z"/></g>
<g><path style="opacity:1" fill="#0b95f6" d="M 1353.5,434.5 C 1358.12,433.408 1359.96,435.075 1359,439.5C 1353.42,441.752 1351.59,440.085 1353.5,434.5 Z"/></g>
<g><path style="opacity:1" fill="#6774a3" d="M 1760.5,410.5 C 1761.49,418.65 1761.83,426.983 1761.5,435.5C 1784.17,435.5 1806.83,435.5 1829.5,435.5C 1829.83,503.335 1829.5,571.002 1828.5,638.5C 1828.5,638.167 1828.5,637.833 1828.5,637.5C 1828.5,570.5 1828.5,503.5 1828.5,436.5C 1805.83,436.5 1783.17,436.5 1760.5,436.5C 1760.5,427.833 1760.5,419.167 1760.5,410.5 Z"/></g>
<g><path style="opacity:1" fill="#586799" d="M 1826.5,438.5 C 1804.83,438.5 1783.17,438.5 1761.5,438.5C 1761.83,497.669 1761.5,556.669 1760.5,615.5C 1760.5,556.167 1760.5,496.833 1760.5,437.5C 1782.67,437.169 1804.67,437.503 1826.5,438.5 Z"/></g>
<g><path style="opacity:1" fill="#0f256e" d="M 1826.5,438.5 C 1826.5,504.167 1826.5,569.833 1826.5,635.5C 1800.33,635.831 1774.33,635.498 1748.5,634.5C 1755.77,630.297 1759.77,623.964 1760.5,615.5C 1761.5,556.669 1761.83,497.669 1761.5,438.5C 1783.17,438.5 1804.83,438.5 1826.5,438.5 Z"/></g>
<g><path style="opacity:1" fill="#fdfdfd" d="M 1085.5,535.5 C 1069.82,542.367 1065.99,553.367 1074,568.5C 1083.19,577.781 1093.36,578.948 1104.5,572C 1112.35,563.367 1113.51,553.867 1108,543.5C 1104.85,539.689 1101.02,537.023 1096.5,535.5C 1096.5,503.833 1096.5,472.167 1096.5,440.5C 1101.17,440.5 1105.83,440.5 1110.5,440.5C 1110.2,443.059 1110.53,445.393 1111.5,447.5C 1114.87,486.919 1131.87,518.919 1162.5,543.5C 1149.33,568.5 1136.17,593.5 1123,618.5C 1101.57,619.826 1080.07,619.826 1058.5,618.5C 1045.37,593.73 1032.37,568.896 1019.5,544C 1025.93,537.566 1032.43,531.066 1039,524.5C 1058.05,502.043 1068.55,476.043 1070.5,446.5C 1071.46,444.735 1071.79,442.735 1071.5,440.5C 1076.17,440.5 1080.83,440.5 1085.5,440.5C 1085.5,472.167 1085.5,503.833 1085.5,535.5 Z"/></g>
<g><path style="opacity:1" fill="#536397" d="M 1085.5,535.5 C 1085.5,503.833 1085.5,472.167 1085.5,440.5C 1080.83,440.5 1076.17,440.5 1071.5,440.5C 1071.79,442.735 1071.46,444.735 1070.5,446.5C 1070.5,444.167 1070.5,441.833 1070.5,439.5C 1075.83,439.5 1081.17,439.5 1086.5,439.5C 1086.83,471.671 1086.5,503.671 1085.5,535.5 Z"/></g>
<g><path style="opacity:1" fill="#828db4" d="M 1111.5,447.5 C 1110.53,445.393 1110.2,443.059 1110.5,440.5C 1105.83,440.5 1101.17,440.5 1096.5,440.5C 1096.5,472.167 1096.5,503.833 1096.5,535.5C 1095.5,503.671 1095.17,471.671 1095.5,439.5C 1100.83,439.5 1106.17,439.5 1111.5,439.5C 1111.5,442.167 1111.5,444.833 1111.5,447.5 Z"/></g>
<g><path style="opacity:1" fill="#0e4493" d="M 1582.5,431.5 C 1583.49,436.305 1583.82,441.305 1583.5,446.5C 1498.33,446.833 1413.33,446.499 1328.5,445.5C 1413.17,445.5 1497.83,445.5 1582.5,445.5C 1582.5,440.833 1582.5,436.167 1582.5,431.5 Z"/></g>
<g><path style="opacity:1" fill="#0c79d4" d="M 1328.5,448.5 C 1413.33,447.501 1498.33,447.167 1583.5,447.5C 1583.83,472.006 1583.5,496.339 1582.5,520.5C 1582.5,520.167 1582.5,519.833 1582.5,519.5C 1582.5,495.833 1582.5,472.167 1582.5,448.5C 1497.83,448.5 1413.17,448.5 1328.5,448.5 Z"/></g>
<g><path style="opacity:1" fill="#077878" d="M 932.5,450.5 C 932.169,471.34 932.503,492.007 933.5,512.5C 933.291,513.922 932.791,515.255 932,516.5C 931.17,494.329 931.337,472.329 932.5,450.5 Z"/></g>
<g><path style="opacity:1" fill="#0b4f73" d="M 1249.5,450.5 C 1250.66,472.996 1250.83,495.663 1250,518.5C 1249.65,516.753 1249.15,515.086 1248.5,513.5C 1249.5,492.673 1249.83,471.673 1249.5,450.5 Z"/></g>
<g><path style="opacity:1" fill="#0d86e4" d="M 1765.5,465.5 C 1779.5,465.5 1793.5,465.5 1807.5,465.5C 1807.5,480.167 1807.5,494.833 1807.5,509.5C 1793.48,509.833 1779.48,509.499 1765.5,508.5C 1778.82,507.501 1792.15,507.167 1805.5,507.5C 1805.5,494.167 1805.5,480.833 1805.5,467.5C 1791.79,468.148 1778.46,467.481 1765.5,465.5 Z"/></g>
<g><path style="opacity:1" fill="#0d60b6" d="M 1765.5,465.5 C 1779.66,464.504 1793.99,464.171 1808.5,464.5C 1808.83,479.676 1808.5,494.676 1807.5,509.5C 1807.5,494.833 1807.5,480.167 1807.5,465.5C 1793.5,465.5 1779.5,465.5 1765.5,465.5 Z"/></g>
<g><path style="opacity:1" fill="#f1f2f6" d="M 439.5,509.5 C 490.5,509.5 541.5,509.5 592.5,509.5C 592.833,534.509 592.5,559.509 591.5,584.5C 590.5,560.176 590.167,535.842 590.5,511.5C 540.833,511.5 491.167,511.5 441.5,511.5C 441.833,535.842 441.5,560.176 440.5,584.5C 439.5,559.509 439.167,534.509 439.5,509.5 Z"/></g>
<g><path style="opacity:1" fill="#0e4d9e" d="M 1584.5,430.5 C 1585.5,459.995 1585.83,489.662 1585.5,519.5C 1610.5,519.5 1635.5,519.5 1660.5,519.5C 1660.5,519.833 1660.5,520.167 1660.5,520.5C 1635.17,520.5 1609.83,520.5 1584.5,520.5C 1584.5,490.5 1584.5,460.5 1584.5,430.5 Z"/></g>
<g><path style="opacity:1" fill="#0e50a3" d="M 1582.5,519.5 C 1582.5,519.833 1582.5,520.167 1582.5,520.5C 1537.83,520.5 1493.17,520.5 1448.5,520.5C 1448.5,586.833 1448.5,653.167 1448.5,719.5C 1563.83,719.5 1679.17,719.5 1794.5,719.5C 1679,720.5 1563.33,720.833 1447.5,720.5C 1447.5,653.5 1447.5,586.5 1447.5,519.5C 1492.5,519.5 1537.5,519.5 1582.5,519.5 Z"/></g>
<g><path style="opacity:1" fill="#0f6175" d="M 929.5,450.5 C 930.498,476.328 930.831,502.328 930.5,528.5C 923.5,528.5 916.5,528.5 909.5,528.5C 915.979,527.509 922.646,527.176 929.5,527.5C 929.5,501.833 929.5,476.167 929.5,450.5 Z"/></g>
<g><path style="opacity:1" fill="#0b4d72" d="M 935.5,525.5 C 940.927,527.146 946.594,528.146 952.5,528.5C 946.5,528.5 940.5,528.5 934.5,528.5C 934.263,527.209 934.596,526.209 935.5,525.5 Z"/></g>
<g><path style="opacity:1" fill="#0c5373" d="M 1246.5,525.5 C 1247.4,526.209 1247.74,527.209 1247.5,528.5C 1241.5,528.5 1235.5,528.5 1229.5,528.5C 1235.41,528.146 1241.07,527.146 1246.5,525.5 Z"/></g>
<g><path style="opacity:1" fill="#0c87e6" d="M 1765.5,534.5 C 1779.18,534.167 1792.85,534.501 1806.5,535.5C 1799.67,535.833 1792.83,536.167 1786,536.5C 1778.8,536.497 1771.97,535.83 1765.5,534.5 Z"/></g>
<g><path style="opacity:1" fill="#0b91f2" d="M 1765.5,548.5 C 1779.18,548.167 1792.85,548.501 1806.5,549.5C 1799.67,549.833 1792.83,550.167 1786,550.5C 1778.8,550.497 1771.97,549.83 1765.5,548.5 Z"/></g>
<g><path style="opacity:1" fill="#0c93f4" d="M 1539.5,550.5 C 1569.17,550.5 1598.83,550.5 1628.5,550.5C 1628.5,553.833 1628.5,557.167 1628.5,560.5C 1598.83,560.5 1569.17,560.5 1539.5,560.5C 1539.5,557.167 1539.5,553.833 1539.5,550.5 Z"/></g>
<g><path style="opacity:1" fill="#0c87e6" d="M 1765.5,563.5 C 1779.18,563.167 1792.85,563.501 1806.5,564.5C 1799.67,564.833 1792.83,565.167 1786,565.5C 1778.8,565.497 1771.97,564.83 1765.5,563.5 Z"/></g>
<g><path style="opacity:1" fill="#ebecf3" d="M 603.5,564.5 C 625.5,564.5 647.5,564.5 669.5,564.5C 669.83,571.2 669.497,577.866 668.5,584.5C 667.504,578.537 667.171,572.537 667.5,566.5C 646.833,566.5 626.167,566.5 605.5,566.5C 605.829,572.537 605.496,578.537 604.5,584.5C 603.503,577.866 603.17,571.2 603.5,564.5 Z"/></g>
<g><path style="opacity:1" fill="#077a79" d="M 929.5,571.5 C 930.498,597.661 930.831,623.995 930.5,650.5C 929.167,650.5 927.833,650.5 926.5,650.5C 927.209,649.596 928.209,649.263 929.5,649.5C 929.5,623.5 929.5,597.5 929.5,571.5 Z"/></g>
<g><path style="opacity:1" fill="#0f256e" d="M 734.5,579.5 C 752.836,579.333 771.17,579.5 789.5,580C 791.667,580.833 793.167,582.333 794,584.5C 794.667,624.167 794.667,663.833 794,703.5C 792.891,705.815 791.057,707.315 788.5,708C 770.833,708.667 753.167,708.667 735.5,708C 733.333,707.167 731.833,705.667 731,703.5C 730.333,663.5 730.333,623.5 731,583.5C 732.376,582.295 733.542,580.962 734.5,579.5 Z"/></g>
<g><path style="opacity:1" fill="#0e6ec7" d="M 1765.5,577.5 C 1779.5,577.5 1793.5,577.5 1807.5,577.5C 1807.5,578.5 1807.5,579.5 1807.5,580.5C 1793.5,580.5 1779.5,580.5 1765.5,580.5C 1765.5,579.5 1765.5,578.5 1765.5,577.5 Z"/></g>
<g><path style="opacity:1" fill="#0b5073" d="M 1249.5,649.5 C 1249.83,628.327 1249.5,607.327 1248.5,586.5C 1248.69,584.436 1249.19,582.436 1250,580.5C 1250.83,603.67 1250.66,626.67 1249.5,649.5 Z"/></g>
<g><path style="opacity:1" fill="#077979" d="M 933.5,587.5 C 932.503,607.993 932.169,628.66 932.5,649.5C 931.337,627.004 931.17,604.337 932,581.5C 932.505,583.518 933.005,585.518 933.5,587.5 Z"/></g>
<g><path style="opacity:1" fill="#0b94f6" d="M 1660.5,588.5 C 1660.5,589.167 1660.5,589.833 1660.5,590.5C 1636.17,590.5 1611.83,590.5 1587.5,590.5C 1587.5,622.5 1587.5,654.5 1587.5,686.5C 1644.5,686.5 1701.5,686.5 1758.5,686.5C 1758.17,674.149 1758.5,661.815 1759.5,649.5C 1760.5,662.483 1760.83,675.483 1760.5,688.5C 1702.17,688.5 1643.83,688.5 1585.5,688.5C 1585.5,655.167 1585.5,621.833 1585.5,588.5C 1610.5,588.5 1635.5,588.5 1660.5,588.5 Z"/></g>
<g><path style="opacity:1" fill="#0c88e6" d="M 1477.5,588.5 C 1505.84,588.167 1534.17,588.5 1562.5,589.5C 1548.33,589.833 1534.17,590.167 1520,590.5C 1505.48,590.499 1491.32,589.833 1477.5,588.5 Z"/></g>
<g><path style="opacity:1" fill="#0b99fc" d="M 1765.5,592.5 C 1779.52,592.167 1793.52,592.501 1807.5,593.5C 1800.5,593.833 1793.5,594.167 1786.5,594.5C 1779.13,594.497 1772.13,593.83 1765.5,592.5 Z"/></g>
<g><path style="opacity:1" fill="#0b9bfe" d="M 1477.5,601.5 C 1505.84,601.167 1534.17,601.5 1562.5,602.5C 1548.33,602.833 1534.17,603.167 1520,603.5C 1505.48,603.499 1491.32,602.833 1477.5,601.5 Z"/></g>
<g><path style="opacity:1" fill="#0e6ec7" d="M 1765.5,606.5 C 1779.5,606.5 1793.5,606.5 1807.5,606.5C 1807.5,607.5 1807.5,608.5 1807.5,609.5C 1793.5,609.5 1779.5,609.5 1765.5,609.5C 1765.5,608.5 1765.5,607.5 1765.5,606.5 Z"/></g>
<g><path style="opacity:1" fill="#0b92f2" d="M 1477.5,614.5 C 1505.84,614.167 1534.17,614.5 1562.5,615.5C 1548.33,615.833 1534.17,616.167 1520,616.5C 1505.48,616.499 1491.32,615.833 1477.5,614.5 Z"/></g>
<g><path style="opacity:1" fill="#0c88e6" d="M 1477.5,628.5 C 1505.84,628.167 1534.17,628.5 1562.5,629.5C 1548.33,629.833 1534.17,630.167 1520,630.5C 1505.48,630.499 1491.32,629.833 1477.5,628.5 Z"/></g>
<g><path style="opacity:1" fill="#546397" d="M 1145.5,633.5 C 1109.17,633.5 1072.83,633.5 1036.5,633.5C 1036.5,641.5 1036.5,649.5 1036.5,657.5C 1035.51,649.35 1035.17,641.017 1035.5,632.5C 1072.34,632.168 1109,632.502 1145.5,633.5 Z"/></g>
<g><path style="opacity:1" fill="#fefffe" d="M 1145.5,633.5 C 1145.5,641.5 1145.5,649.5 1145.5,657.5C 1109.17,657.5 1072.83,657.5 1036.5,657.5C 1036.5,649.5 1036.5,641.5 1036.5,633.5C 1072.83,633.5 1109.17,633.5 1145.5,633.5 Z"/></g>
<g><path style="opacity:1" fill="#8792b7" d="M 1748.5,634.5 C 1774.33,635.498 1800.33,635.831 1826.5,635.5C 1799.67,636.664 1772.67,636.83 1745.5,636C 1746.53,635.487 1747.53,634.987 1748.5,634.5 Z"/></g>
<g><path style="opacity:1" fill="#8793b8" d="M 1692.5,436.5 C 1682.17,436.5 1671.83,436.5 1661.5,436.5C 1661.5,503.5 1661.5,570.5 1661.5,637.5C 1717.17,637.5 1772.83,637.5 1828.5,637.5C 1828.5,637.833 1828.5,638.167 1828.5,638.5C 1772.5,638.5 1716.5,638.5 1660.5,638.5C 1660.5,622.5 1660.5,606.5 1660.5,590.5C 1660.5,589.833 1660.5,589.167 1660.5,588.5C 1660.5,567.167 1660.5,545.833 1660.5,524.5C 1660.5,523.167 1660.5,521.833 1660.5,520.5C 1660.5,520.167 1660.5,519.833 1660.5,519.5C 1660.5,491.5 1660.5,463.5 1660.5,435.5C 1671.35,435.172 1682.01,435.506 1692.5,436.5 Z"/></g>
<g><path style="opacity:1" fill="#0b9bfd" d="M 1477.5,641.5 C 1487.85,641.168 1498.19,641.501 1508.5,642.5C 1503.33,642.833 1498.17,643.167 1493,643.5C 1487.45,643.495 1482.29,642.828 1477.5,641.5 Z"/></g>
<g><path style="opacity:1" fill="#0d5aae" d="M 369.5,379.5 C 369.5,379.833 369.5,380.167 369.5,380.5C 369.5,467.833 369.5,555.167 369.5,642.5C 486.167,642.5 602.833,642.5 719.5,642.5C 719.5,641.5 719.5,640.5 719.5,639.5C 603.999,639.833 488.665,639.5 373.5,638.5C 489.167,638.5 604.833,638.5 720.5,638.5C 720.5,640.167 720.5,641.833 720.5,643.5C 603.167,643.5 485.833,643.5 368.5,643.5C 368.167,555.332 368.501,467.332 369.5,379.5 Z"/></g>
<g><path style="opacity:1" fill="#11296e" d="M 927.5,651.5 C 937.666,651.498 942.5,656.498 942,666.5C 938.303,673.58 932.803,675.747 925.5,673C 917.031,664.979 917.698,657.812 927.5,651.5 Z"/></g>
<g><path style="opacity:1" fill="#11296e" d="M 1256.5,652.5 C 1263.08,657.567 1264.08,663.567 1259.5,670.5C 1249.6,677.155 1242.93,674.655 1239.5,663C 1240.03,660.774 1240.7,658.607 1241.5,656.5C 1245.51,651.661 1250.51,650.327 1256.5,652.5 Z"/></g>
<g><path style="opacity:1" fill="#0ab680" d="M 1257.5,651.5 C 1263.75,655.018 1265.92,660.351 1264,667.5C 1259.78,675.687 1253.28,678.187 1244.5,675C 1237.08,669.481 1235.75,662.981 1240.5,655.5C 1241.17,655.5 1241.5,655.833 1241.5,656.5C 1240.7,658.607 1240.03,660.774 1239.5,663C 1242.93,674.655 1249.6,677.155 1259.5,670.5C 1264.08,663.567 1263.08,657.567 1256.5,652.5C 1257.17,652.5 1257.5,652.167 1257.5,651.5 Z"/></g>
<g><path style="opacity:1" fill="#0f256f" d="M 666.5,706.5 C 667.708,707.234 669.041,707.567 670.5,707.5C 625.669,708.665 580.669,708.831 535.5,708C 554.746,700.806 574.079,693.806 593.5,687C 599.5,686.333 605.5,686.333 611.5,687C 629.819,693.606 648.152,700.106 666.5,706.5 Z"/></g>
<g><path style="opacity:1" fill="#0e5574" d="M 1069.5,688.5 C 1069.5,694.5 1069.5,700.5 1069.5,706.5C 1067.59,706.784 1065.92,706.451 1064.5,705.5C 1065.83,705.5 1067.17,705.5 1068.5,705.5C 1068.18,699.642 1068.51,693.975 1069.5,688.5 Z"/></g>
<g><path style="opacity:1" fill="#0f246e" d="M 1073.5,692.5 C 1085.17,692.5 1096.83,692.5 1108.5,692.5C 1108.5,704.167 1108.5,715.833 1108.5,727.5C 1096.83,727.5 1085.17,727.5 1073.5,727.5C 1073.5,715.833 1073.5,704.167 1073.5,692.5 Z"/></g>
<g><path style="opacity:1" fill="#0b92f2" d="M 759.5,694.5 C 767.486,693.998 769.486,697.165 765.5,704C 757.424,704.805 755.424,701.638 759.5,694.5 Z"/></g>
<g><path style="opacity:1" fill="#0f2771" d="M 760.5,696.5 C 765.159,696.015 766.492,697.848 764.5,702C 759.728,702.81 758.395,700.977 760.5,696.5 Z"/></g>
<g><path style="opacity:1" fill="#0c89e8" d="M 668.5,705.5 C 667.508,705.328 666.842,705.662 666.5,706.5C 648.152,700.106 629.819,693.606 611.5,687C 605.5,686.333 599.5,686.333 593.5,687C 574.079,693.806 554.746,700.806 535.5,708C 580.669,708.831 625.669,708.665 670.5,707.5C 671.473,707.987 672.473,708.487 673.5,709C 626.167,709.667 578.833,709.667 531.5,709C 534.097,708.221 534.097,707.721 531.5,707.5C 551.542,699.538 571.876,692.038 592.5,685C 595.948,684.141 599.448,683.641 603,683.5C 610.369,684.467 617.536,686.301 624.5,689C 639.227,694.627 653.893,700.127 668.5,705.5 Z"/></g>
<g><path style="opacity:1" fill="#09b780" d="M 821.5,900.5 C 821.5,899.833 821.167,899.5 820.5,899.5C 874.018,829.13 928.018,759.13 982.5,689.5C 983.521,690.002 983.688,690.668 983,691.5C 929.303,761.352 875.47,831.019 821.5,900.5 Z"/></g>
<g><path style="opacity:1" fill="#09b780" d="M 1362.5,901.5 C 1362.5,902.167 1362.5,902.833 1362.5,903.5C 1307.61,832.749 1252.94,761.749 1198.5,690.5C 1199.87,689.406 1201.03,689.74 1202,691.5C 1255.76,761.38 1309.26,831.38 1362.5,901.5 Z"/></g>
<g><path style="opacity:1" fill="#00cb82" d="M 820.5,899.5 C 821.167,899.5 821.5,899.833 821.5,900.5C 820.386,901.885 819.386,903.385 818.5,905C 669.166,905.833 519.832,905.667 370.5,904.5C 519.499,903.667 668.499,903.167 817.5,903C 818.163,901.482 819.163,900.315 820.5,899.5 Z"/></g>
<g><path style="opacity:1" fill="#00cb82" d="M 1362.5,901.5 C 1363.29,901.783 1363.96,902.283 1364.5,903C 1519.17,903.167 1673.83,903.667 1828.5,904.5C 1673.5,905.667 1518.5,905.833 1363.5,905C 1362.94,904.617 1362.61,904.117 1362.5,903.5C 1362.5,902.833 1362.5,902.167 1362.5,901.5 Z"/></g>
</svg>
