<?xml version="1.0" encoding="UTF-8"?>
<!DOCTYPE svg PUBLIC "-//W3C//DTD SVG 1.1//EN" "http://www.w3.org/Graphics/SVG/1.1/DTD/svg11.dtd">
<svg xmlns="http://www.w3.org/2000/svg" version="1.1" width="417px" height="204px" style="shape-rendering:geometricPrecision; text-rendering:geometricPrecision; image-rendering:optimizeQuality; fill-rule:evenodd; clip-rule:evenodd" xmlns:xlink="http://www.w3.org/1999/xlink">
<g><path style="opacity:1" fill="#ffffff" d="M -0.5,-0.5 C 138.5,-0.5 277.5,-0.5 416.5,-0.5C 416.5,67.5 416.5,135.5 416.5,203.5C 277.5,203.5 138.5,203.5 -0.5,203.5C -0.5,135.5 -0.5,67.5 -0.5,-0.5 Z"/></g>
<g><path style="opacity:1" fill="#4a2283" d="M 64.5,54.5 C 63.7241,58.0525 62.3908,61.3858 60.5,64.5C 52.1618,63.5181 49.1618,67.1848 51.5,75.5C 48.5,81.5 45.5,87.5 42.5,93.5C 42.3335,83.1613 42.5002,72.828 43,62.5C 44.1049,59.0629 46.2716,56.5629 49.5,55C 54.4889,54.5007 59.4889,54.3341 64.5,54.5 Z"/></g>
<g><path style="opacity:1" fill="#412c9f" d="M 64.5,54.5 C 70.8333,54.5 77.1667,54.5 83.5,54.5C 82.1667,57.8333 80.8333,61.1667 79.5,64.5C 73.1667,64.5 66.8333,64.5 60.5,64.5C 62.3908,61.3858 63.7241,58.0525 64.5,54.5 Z"/></g>
<g><path style="opacity:1" fill="#3a35b8" d="M 83.5,54.5 C 89.8333,54.5 96.1667,54.5 102.5,54.5C 100.833,57.8333 99.1667,61.1667 97.5,64.5C 91.5,64.5 85.5,64.5 79.5,64.5C 80.8333,61.1667 82.1667,57.8333 83.5,54.5 Z"/></g>
<g><path style="opacity:1" fill="#3440d3" d="M 102.5,54.5 C 108.509,54.3338 114.509,54.5005 120.5,55C 122.066,55.6082 123.4,56.4415 124.5,57.5C 122.595,60.3037 120.929,63.3037 119.5,66.5C 118.711,66.2172 118.044,65.7172 117.5,65C 110.842,64.5004 104.175,64.3337 97.5,64.5C 99.1667,61.1667 100.833,57.8333 102.5,54.5 Z"/></g>
<g><path style="opacity:1" fill="#faf9fd" d="M 60.5,64.5 C 66.8333,64.5 73.1667,64.5 79.5,64.5C 85.5,64.5 91.5,64.5 97.5,64.5C 104.175,64.3337 110.842,64.5004 117.5,65C 118.044,65.7172 118.711,66.2172 119.5,66.5C 119.667,78.5046 119.5,90.5046 119,102.5C 118.617,103.056 118.117,103.389 117.5,103.5C 95.8308,103.667 74.1641,103.5 52.5,103C 51.5155,93.9172 51.1822,84.7506 51.5,75.5C 49.1618,67.1848 52.1618,63.5181 60.5,64.5 Z"/></g>
<g><path style="opacity:1" fill="#090909" d="M 216.5,69.5 C 219.5,69.5 222.5,69.5 225.5,69.5C 222.937,87.1079 220.937,104.775 219.5,122.5C 221.144,122.714 222.644,122.38 224,121.5C 226.595,125.579 225.429,127.745 220.5,128C 215.88,129.538 212.713,128.038 211,123.5C 206.426,128.15 200.926,129.65 194.5,128C 189.005,124.378 186.672,119.211 187.5,112.5C 187.063,99.3202 193.229,91.6535 206,89.5C 208.917,89.3349 211.583,90.0015 214,91.5C 215.444,84.2295 216.277,76.8962 216.5,69.5 Z"/></g>
<g><path style="opacity:1" fill="#0a0a0a" d="M 334.5,69.5 C 337.5,69.5 340.5,69.5 343.5,69.5C 342.624,77.5488 341.791,85.5488 341,93.5C 345.517,89.7576 350.684,88.591 356.5,90C 358.333,90.5 359.5,91.6667 360,93.5C 359.761,104.83 359.261,116.163 358.5,127.5C 355.102,127.82 351.768,127.487 348.5,126.5C 350.471,116.931 351.304,107.264 351,97.5C 347.125,95.9522 343.625,96.6189 340.5,99.5C 338.219,108.693 336.886,118.026 336.5,127.5C 333.5,127.5 330.5,127.5 327.5,127.5C 330.208,108.214 332.541,88.8802 334.5,69.5 Z"/></g>
<g><path style="opacity:1" fill="#848484" d="M 154.5,72.5 C 165.654,71.5052 176.988,71.1719 188.5,71.5C 188.737,72.791 188.404,73.791 187.5,74.5C 176.884,72.523 165.884,71.8564 154.5,72.5 Z"/></g>
<g><path style="opacity:1" fill="#050505" d="M 154.5,72.5 C 165.884,71.8564 176.884,72.523 187.5,74.5C 187.5,76.1667 187.5,77.8333 187.5,79.5C 179.804,79.1692 172.138,79.5025 164.5,80.5C 163.274,85.4153 162.607,90.4153 162.5,95.5C 168.167,95.5 173.833,95.5 179.5,95.5C 179.007,97.8056 178.674,100.139 178.5,102.5C 172.833,102.5 167.167,102.5 161.5,102.5C 160.181,108.419 159.514,114.419 159.5,120.5C 166.841,120.334 174.174,120.5 181.5,121C 180.577,123.041 180.244,125.208 180.5,127.5C 169.833,127.5 159.167,127.5 148.5,127.5C 150.875,109.206 152.875,90.873 154.5,72.5 Z"/></g>
<g><path style="opacity:1" fill="#040404" d="M 228.5,72.5 C 241.833,72.5 255.167,72.5 268.5,72.5C 268.5,74.8333 268.5,77.1667 268.5,79.5C 263.167,79.5 257.833,79.5 252.5,79.5C 250.828,95.5426 248.828,111.543 246.5,127.5C 243.167,127.5 239.833,127.5 236.5,127.5C 238.065,111.443 240.065,95.4428 242.5,79.5C 237.833,79.5 233.167,79.5 228.5,79.5C 228.5,77.1667 228.5,74.8333 228.5,72.5 Z"/></g>
<g><path style="opacity:1" fill="#324cec" d="M 124.5,57.5 C 126.708,58.8936 128.208,60.8936 129,63.5C 129.667,76.8333 129.667,90.1667 129,103.5C 128.184,108.631 125.351,112.131 120.5,114C 108.505,114.5 96.5046,114.667 84.5,114.5C 86.3908,111.386 87.7241,108.052 88.5,104.5C 98.3478,104.827 108.014,104.494 117.5,103.5C 118.117,103.389 118.617,103.056 119,102.5C 119.5,90.5046 119.667,78.5046 119.5,66.5C 120.929,63.3037 122.595,60.3037 124.5,57.5 Z"/></g>
<g><path style="opacity:1" fill="#3542d5" d="M 87.5,80.5 C 92.1785,80.3342 96.8452,80.5008 101.5,81C 104.167,83.3333 104.167,85.6667 101.5,88C 91.8391,88.4998 82.1724,88.6665 72.5,88.5C 77.5851,86.1223 82.5851,83.4556 87.5,80.5 Z"/></g>
<g><path style="opacity:1" fill="#422fa3" d="M 87.5,80.5 C 82.5851,83.4556 77.5851,86.1223 72.5,88.5C 71.4168,88.4606 70.4168,88.1272 69.5,87.5C 68.2309,85.3052 68.2309,83.1385 69.5,81C 75.4908,80.5005 81.4908,80.3338 87.5,80.5 Z"/></g>
<g><path style="opacity:1" fill="#090909" d="M 274.5,89.5 C 279.699,89.0144 284.699,89.6811 289.5,91.5C 293.924,99.0899 292.258,105.257 284.5,110C 279.705,112.033 274.705,112.866 269.5,112.5C 270.018,120.179 274.018,123.012 281.5,121C 283.899,120.269 286.065,119.102 288,117.5C 289.964,119.853 290.464,122.353 289.5,125C 280.922,129.748 272.589,129.582 264.5,124.5C 259.481,118.211 258.314,111.211 261,103.5C 263.687,96.981 268.187,92.3143 274.5,89.5 Z"/></g>
<g><path style="opacity:1" fill="#0a0a0a" d="M 308.5,89.5 C 312.846,89.3343 317.179,89.501 321.5,90C 323.618,90.2602 325.284,91.2602 326.5,93C 324.707,94.7799 323.04,96.6132 321.5,98.5C 314.859,93.6232 309.692,94.9565 306,102.5C 303.926,108.342 304.093,114.009 306.5,119.5C 311.22,122.348 315.72,122.015 320,118.5C 324.281,124.314 322.781,127.48 315.5,128C 306.038,130.518 299.538,127.351 296,118.5C 293.125,105.612 297.291,95.9452 308.5,89.5 Z"/></g>
<g><path style="opacity:1" fill="#4b35a1" d="M 51.5,75.5 C 51.1822,84.7506 51.5155,93.9172 52.5,103C 74.1641,103.5 95.8308,103.667 117.5,103.5C 108.014,104.494 98.3478,104.827 88.5,104.5C 77.8281,104.333 67.1615,104.5 56.5,105C 54.8724,108.052 53.539,111.218 52.5,114.5C 43.0972,110.689 39.7639,103.689 42.5,93.5C 45.5,87.5 48.5,81.5 51.5,75.5 Z"/></g>
<g><path style="opacity:1" fill="#f9f9f9" d="M 203.5,95.5 C 207.631,94.7147 210.964,95.8814 213.5,99C 212.52,105.755 210.687,112.255 208,118.5C 205.261,122.782 201.927,123.448 198,120.5C 194.659,110.879 196.492,102.545 203.5,95.5 Z"/></g>
<g><path style="opacity:1" fill="#ececec" d="M 277.5,95.5 C 283.131,94.6183 284.631,96.6183 282,101.5C 278.672,105.417 274.505,106.917 269.5,106C 271.097,101.618 273.764,98.118 277.5,95.5 Z"/></g>
<g><path style="opacity:1" fill="#3938be" d="M 88.5,104.5 C 87.7241,108.052 86.3908,111.386 84.5,114.5C 73.8333,114.5 63.1667,114.5 52.5,114.5C 53.539,111.218 54.8724,108.052 56.5,105C 67.1615,104.5 77.8281,104.333 88.5,104.5 Z"/></g>
<g><path style="opacity:1" fill="#3b35b6" d="M 71.5,121.5 C 68.4936,128.844 65.4936,136.177 62.5,143.5C 57.1563,143.666 51.8229,143.499 46.5,143C 45.3333,141.833 44.1667,140.667 43,139.5C 42.3333,135.167 42.3333,130.833 43,126.5C 43.8333,124.333 45.3333,122.833 47.5,122C 55.4931,121.5 63.4931,121.334 71.5,121.5 Z"/></g>
<g><path style="opacity:1" fill="#333fd1" d="M 71.5,121.5 C 77.8333,121.5 84.1667,121.5 90.5,121.5C 87.1691,128.829 83.8358,136.162 80.5,143.5C 74.5,143.5 68.5,143.5 62.5,143.5C 65.4936,136.177 68.4936,128.844 71.5,121.5 Z"/></g>
<g><path style="opacity:1" fill="#2e4bee" d="M 90.5,121.5 C 101.505,121.333 112.505,121.5 123.5,122C 126,123.167 127.833,125 129,127.5C 130.711,133.694 129.211,138.86 124.5,143C 109.837,143.5 95.1705,143.667 80.5,143.5C 83.8358,136.162 87.1691,128.829 90.5,121.5 Z"/></g>
</svg>
