<?xml version="1.0" encoding="UTF-8"?>
<!DOCTYPE svg PUBLIC "-//W3C//DTD SVG 1.1//EN" "http://www.w3.org/Graphics/SVG/1.1/DTD/svg11.dtd">
<svg xmlns="http://www.w3.org/2000/svg" version="1.1" width="496px" height="431px" style="shape-rendering:geometricPrecision; text-rendering:geometricPrecision; image-rendering:optimizeQuality; fill-rule:evenodd; clip-rule:evenodd" xmlns:xlink="http://www.w3.org/1999/xlink">
<g><path style="opacity:1" fill="#fefefe" d="M -0.5,-0.5 C 164.833,-0.5 330.167,-0.5 495.5,-0.5C 495.5,143.167 495.5,286.833 495.5,430.5C 330.167,430.5 164.833,430.5 -0.5,430.5C -0.5,286.833 -0.5,143.167 -0.5,-0.5 Z"/></g>
<g><path style="opacity:1" fill="#4a2486" d="M 174.5,55.5 C 180.167,55.5 185.833,55.5 191.5,55.5C 187.894,63.0454 184.561,70.7121 181.5,78.5C 178.03,77.8748 175.196,78.8748 173,81.5C 172.5,107.498 172.333,133.498 172.5,159.5C 171.512,154.36 171.179,149.026 171.5,143.5C 171.667,129.163 171.5,114.829 171,100.5C 164.392,115.378 157.558,130.044 150.5,144.5C 150.5,131.167 150.5,117.833 150.5,104.5C 158.244,88.0129 166.244,71.6795 174.5,55.5 Z"/></g>
<g><path style="opacity:1" fill="#452690" d="M 191.5,55.5 C 197.833,55.5 204.167,55.5 210.5,55.5C 207.439,63.2879 204.106,70.9546 200.5,78.5C 194.167,78.5 187.833,78.5 181.5,78.5C 184.561,70.7121 187.894,63.0454 191.5,55.5 Z"/></g>
<g><path style="opacity:1" fill="#412b9d" d="M 210.5,55.5 C 217.5,55.5 224.5,55.5 231.5,55.5C 228.439,63.2879 225.106,70.9546 221.5,78.5C 214.5,78.5 207.5,78.5 200.5,78.5C 204.106,70.9546 207.439,63.2879 210.5,55.5 Z"/></g>
<g><path style="opacity:1" fill="#3e30a9" d="M 231.5,55.5 C 238.167,55.5 244.833,55.5 251.5,55.5C 247.776,63.0086 244.443,70.6753 241.5,78.5C 234.833,78.5 228.167,78.5 221.5,78.5C 225.106,70.9546 228.439,63.2879 231.5,55.5 Z"/></g>
<g><path style="opacity:1" fill="#3938be" d="M 251.5,55.5 C 264.833,55.5 278.167,55.5 291.5,55.5C 288.167,63.1667 284.833,70.8333 281.5,78.5C 268.167,78.5 254.833,78.5 241.5,78.5C 244.443,70.6753 247.776,63.0086 251.5,55.5 Z"/></g>
<g><path style="opacity:1" fill="#343fd1" d="M 291.5,55.5 C 300.839,55.3335 310.173,55.5002 319.5,56C 320.737,56.2321 321.737,56.7321 322.5,57.5C 321.357,57.9081 320.357,58.5748 319.5,59.5C 316.545,65.7395 313.878,72.0729 311.5,78.5C 301.5,78.5 291.5,78.5 281.5,78.5C 284.833,70.8333 288.167,63.1667 291.5,55.5 Z"/></g>
<g><path style="opacity:1" fill="#4d217c" d="M 174.5,55.5 C 166.244,71.6795 158.244,88.0129 150.5,104.5C 150.074,94.0878 150.574,83.7544 152,73.5C 156.375,63.6278 163.875,57.6278 174.5,55.5 Z"/></g>
<g><path style="opacity:1" fill="#fdfcfe" d="M 181.5,78.5 C 187.833,78.5 194.167,78.5 200.5,78.5C 207.5,78.5 214.5,78.5 221.5,78.5C 228.167,78.5 234.833,78.5 241.5,78.5C 254.833,78.5 268.167,78.5 281.5,78.5C 291.5,78.5 301.5,78.5 311.5,78.5C 314.325,78.0807 316.491,79.0807 318,81.5C 318.667,108.167 318.667,134.833 318,161.5C 317.5,162 317,162.5 316.5,163C 305.172,163.5 293.838,163.667 282.5,163.5C 269.167,163.5 255.833,163.5 242.5,163.5C 228.833,163.5 215.167,163.5 201.5,163.5C 195.167,163.5 188.833,163.5 182.5,163.5C 179.813,163.664 177.146,163.497 174.5,163C 173.177,162.184 172.511,161.017 172.5,159.5C 172.333,133.498 172.5,107.498 173,81.5C 175.196,78.8748 178.03,77.8748 181.5,78.5 Z"/></g>
<g><path style="opacity:1" fill="#2e4bee" d="M 322.5,57.5 C 331.676,61.1803 337.51,67.847 340,77.5C 340.667,106.5 340.667,135.5 340,164.5C 337.674,175.491 331.174,182.658 320.5,186C 304.503,186.5 288.503,186.667 272.5,186.5C 276.106,178.955 279.439,171.288 282.5,163.5C 293.838,163.667 305.172,163.5 316.5,163C 317,162.5 317.5,162 318,161.5C 318.667,134.833 318.667,108.167 318,81.5C 316.491,79.0807 314.325,78.0807 311.5,78.5C 313.878,72.0729 316.545,65.7395 319.5,59.5C 320.357,58.5748 321.357,57.9081 322.5,57.5 Z"/></g>
<g><path style="opacity:1" fill="#46258e" d="M 171.5,143.5 C 165.715,154.074 160.715,165.074 156.5,176.5C 153.617,172.706 151.784,168.373 151,163.5C 150.5,157.175 150.334,150.842 150.5,144.5C 157.558,130.044 164.392,115.378 171,100.5C 171.5,114.829 171.667,129.163 171.5,143.5 Z"/></g>
<g><path style="opacity:1" fill="#3241d7" d="M 263.5,112.5 C 268.695,112.179 273.695,112.513 278.5,113.5C 267.768,118.866 257.101,124.199 246.5,129.5C 241.167,129.5 235.833,129.5 230.5,129.5C 241.375,123.563 252.375,117.896 263.5,112.5 Z"/></g>
<g><path style="opacity:1" fill="#48288e" d="M 230.5,112.5 C 223.267,116.949 215.601,120.615 207.5,123.5C 205.958,118.74 207.624,115.24 212.5,113C 218.491,112.501 224.491,112.334 230.5,112.5 Z"/></g>
<g><path style="opacity:1" fill="#2e4cef" d="M 278.5,113.5 C 286.095,118.032 286.429,123.198 279.5,129C 268.505,129.5 257.505,129.667 246.5,129.5C 257.101,124.199 267.768,118.866 278.5,113.5 Z"/></g>
<g><path style="opacity:1" fill="#402fa5" d="M 230.5,112.5 C 236.167,112.5 241.833,112.5 247.5,112.5C 236.167,118.167 224.833,123.833 213.5,129.5C 210.167,128.833 208.167,126.833 207.5,123.5C 215.601,120.615 223.267,116.949 230.5,112.5 Z"/></g>
<g><path style="opacity:1" fill="#3937bc" d="M 247.5,112.5 C 252.833,112.5 258.167,112.5 263.5,112.5C 252.375,117.896 241.375,123.563 230.5,129.5C 224.833,129.5 219.167,129.5 213.5,129.5C 224.833,123.833 236.167,118.167 247.5,112.5 Z"/></g>
<g><path style="opacity:1" fill="#422c9d" d="M 171.5,143.5 C 171.179,149.026 171.512,154.36 172.5,159.5C 172.511,161.017 173.177,162.184 174.5,163C 177.146,163.497 179.813,163.664 182.5,163.5C 179.439,171.288 176.106,178.955 172.5,186.5C 165.856,185.182 160.523,181.849 156.5,176.5C 160.715,165.074 165.715,154.074 171.5,143.5 Z"/></g>
<g><path style="opacity:1" fill="#3e30a9" d="M 182.5,163.5 C 188.833,163.5 195.167,163.5 201.5,163.5C 198.557,171.325 195.224,178.991 191.5,186.5C 185.167,186.5 178.833,186.5 172.5,186.5C 176.106,178.955 179.439,171.288 182.5,163.5 Z"/></g>
<g><path style="opacity:1" fill="#3938be" d="M 201.5,163.5 C 215.167,163.5 228.833,163.5 242.5,163.5C 238.894,171.045 235.561,178.712 232.5,186.5C 218.833,186.5 205.167,186.5 191.5,186.5C 195.224,178.991 198.557,171.325 201.5,163.5 Z"/></g>
<g><path style="opacity:1" fill="#3241d7" d="M 242.5,163.5 C 255.833,163.5 269.167,163.5 282.5,163.5C 279.439,171.288 276.106,178.955 272.5,186.5C 259.167,186.5 245.833,186.5 232.5,186.5C 235.561,178.712 238.894,171.045 242.5,163.5 Z"/></g>
<g><path style="opacity:1" fill="#3f30a9" d="M 184.5,202.5 C 177.228,218.044 170.228,233.711 163.5,249.5C 158.004,248.177 154.171,244.844 152,239.5C 144.636,211.036 155.469,198.702 184.5,202.5 Z"/></g>
<g><path style="opacity:1" fill="#3b35b6" d="M 184.5,202.5 C 191.5,202.5 198.5,202.5 205.5,202.5C 198.167,218.5 190.833,234.5 183.5,250.5C 176.646,250.824 169.979,250.491 163.5,249.5C 170.228,233.711 177.228,218.044 184.5,202.5 Z"/></g>
<g><path style="opacity:1" fill="#3739c2" d="M 205.5,202.5 C 211.833,202.5 218.167,202.5 224.5,202.5C 217.5,218.5 210.5,234.5 203.5,250.5C 196.833,250.5 190.167,250.5 183.5,250.5C 190.833,234.5 198.167,218.5 205.5,202.5 Z"/></g>
<g><path style="opacity:1" fill="#343ecf" d="M 224.5,202.5 C 231.5,202.5 238.5,202.5 245.5,202.5C 238.5,218.5 231.5,234.5 224.5,250.5C 217.5,250.5 210.5,250.5 203.5,250.5C 210.5,234.5 217.5,218.5 224.5,202.5 Z"/></g>
<g><path style="opacity:1" fill="#3143db" d="M 245.5,202.5 C 252.167,202.5 258.833,202.5 265.5,202.5C 258.167,218.5 250.833,234.5 243.5,250.5C 237.167,250.5 230.833,250.5 224.5,250.5C 231.5,234.5 238.5,218.5 245.5,202.5 Z"/></g>
<g><path style="opacity:1" fill="#2c4bef" d="M 265.5,202.5 C 285.503,202.333 305.503,202.5 325.5,203C 332.79,204.288 337.623,208.455 340,215.5C 340.901,223.579 340.568,231.579 339,239.5C 336.668,245.164 332.501,248.664 326.5,250C 298.835,250.5 271.169,250.667 243.5,250.5C 250.833,234.5 258.167,218.5 265.5,202.5 Z"/></g>
<g><path style="opacity:1" fill="#060606" d="M 183.5,276.5 C 188.5,276.5 193.5,276.5 198.5,276.5C 194.788,303.32 191.121,330.153 187.5,357C 186.655,363.246 189.155,365.079 195,362.5C 200.169,367.584 199.336,371.084 192.5,373C 184.545,375.361 178.378,373.194 174,366.5C 161.896,377.488 150.23,377.155 139,365.5C 130.857,346.239 134.357,329.406 149.5,315C 159.374,308.784 169.707,307.951 180.5,312.5C 181.895,300.543 182.895,288.543 183.5,276.5 Z"/></g>
<g><path style="opacity:1" fill="#050505" d="M 379.5,370.5 C 377.277,371.702 374.777,372.369 372,372.5C 369.39,372.467 367.223,371.8 365.5,370.5C 368.671,343.795 372.171,317.129 376,290.5C 376.499,285.845 376.666,281.179 376.5,276.5C 381.5,276.5 386.5,276.5 391.5,276.5C 389.481,289.796 387.981,303.129 387,316.5C 394.73,309.56 403.563,307.726 413.5,311C 416.135,312.961 417.969,315.461 419,318.5C 419.667,322.833 419.667,327.167 419,331.5C 417.049,345.13 415.549,358.796 414.5,372.5C 409.5,372.5 404.5,372.5 399.5,372.5C 401.397,358.701 403.063,344.868 404.5,331C 405.908,322.741 402.574,319.741 394.5,322C 391.088,323.455 387.921,325.288 385,327.5C 383.136,341.846 381.302,356.179 379.5,370.5 Z"/></g>
<g><path style="opacity:1" fill="#020202" d="M 95.5,315.5 C 94.5489,316.919 94.2155,318.585 94.5,320.5C 103.833,320.5 113.167,320.5 122.5,320.5C 121.756,324.119 121.423,327.785 121.5,331.5C 112.161,331.334 102.827,331.5 93.5,332C 91.8987,341.431 90.5653,350.931 89.5,360.5C 101.5,360.5 113.5,360.5 125.5,360.5C 125.167,364.5 124.833,368.5 124.5,372.5C 106.833,372.5 89.1667,372.5 71.5,372.5C 75.8912,342.255 79.5579,311.921 82.5,281.5C 100.5,281.5 118.5,281.5 136.5,281.5C 135.728,285.452 135.395,289.452 135.5,293.5C 123.162,293.333 110.829,293.5 98.5,294C 96.8079,301.033 95.8079,308.199 95.5,315.5 Z"/></g>
<g><path style="opacity:1" fill="#020202" d="M 232.5,372.5 C 227.167,372.5 221.833,372.5 216.5,372.5C 216.5,371.167 216.5,369.833 216.5,368.5C 219.236,344.469 222.236,320.469 225.5,296.5C 226.404,295.791 226.737,294.791 226.5,293.5C 218.5,293.5 210.5,293.5 202.5,293.5C 202.5,292.5 202.5,291.5 202.5,290.5C 202.704,287.482 203.037,284.482 203.5,281.5C 225.167,281.5 246.833,281.5 268.5,281.5C 268.167,285.5 267.833,289.5 267.5,293.5C 259.248,293.184 251.081,293.518 243,294.5C 239.35,320.483 235.85,346.483 232.5,372.5 Z"/></g>
<g><path style="opacity:1" fill="#7f7f7f" d="M 202.5,290.5 C 202.5,291.5 202.5,292.5 202.5,293.5C 210.5,293.5 218.5,293.5 226.5,293.5C 226.737,294.791 226.404,295.791 225.5,296.5C 217.903,294.533 209.903,293.866 201.5,294.5C 201.232,292.901 201.566,291.568 202.5,290.5 Z"/></g>
<g><path style="opacity:1" fill="#070707" d="M 280.5,309.5 C 288.152,308.817 295.485,309.984 302.5,313C 308.925,320.599 309.092,328.433 303,336.5C 293.591,345.138 282.424,349.138 269.5,348.5C 270.022,358.863 275.355,363.696 285.5,363C 290.558,361.637 295.224,359.471 299.5,356.5C 301.861,359.377 303.861,362.544 305.5,366C 292.598,375.428 278.931,376.761 264.5,370C 252.853,359.061 250.353,346.228 257,331.5C 261.833,320.83 269.666,313.497 280.5,309.5 Z"/></g>
<g><path style="opacity:1" fill="#060606" d="M 337.5,309.5 C 343.565,309.261 349.565,309.761 355.5,311C 358.621,311.726 361.287,313.226 363.5,315.5C 360.805,318.526 358.138,321.526 355.5,324.5C 345.783,316.734 337.617,318.067 331,328.5C 326.839,338.399 326.506,348.399 330,358.5C 332.276,361.888 335.442,363.554 339.5,363.5C 344.127,362.69 348.46,361.023 352.5,358.5C 354.39,361.272 356.057,364.272 357.5,367.5C 346.039,375.621 334.039,376.455 321.5,370C 311.225,359.198 308.725,346.698 314,332.5C 318.441,321.224 326.274,313.558 337.5,309.5 Z"/></g>
<g><path style="opacity:1" fill="#454545" d="M 95.5,315.5 C 95.5,316.833 95.5,318.167 95.5,319.5C 104.682,319.173 113.682,319.507 122.5,320.5C 113.167,320.5 103.833,320.5 94.5,320.5C 94.2155,318.585 94.5489,316.919 95.5,315.5 Z"/></g>
<g><path style="opacity:1" fill="#fafafa" d="M 163.5,319.5 C 168.677,318.703 173.177,320.036 177,323.5C 177.906,337.828 174.073,350.661 165.5,362C 161.961,363.504 158.295,363.837 154.5,363C 152.683,361.2 151.516,359.034 151,356.5C 148.825,344.962 150.825,334.295 157,324.5C 158.965,322.45 161.132,320.783 163.5,319.5 Z"/></g>
<g><path style="opacity:1" fill="#f5f5f5" d="M 284.5,319.5 C 292.687,319.876 294.52,323.543 290,330.5C 284.899,335.481 278.732,337.814 271.5,337.5C 272.707,329.286 277.04,323.286 284.5,319.5 Z"/></g>
<g><path style="opacity:1" fill="#757575" d="M 216.5,368.5 C 216.5,369.833 216.5,371.167 216.5,372.5C 221.833,372.5 227.167,372.5 232.5,372.5C 227.025,373.489 221.358,373.822 215.5,373.5C 215.216,371.585 215.549,369.919 216.5,368.5 Z"/></g>
<g><path style="opacity:1" fill="#7f7f7f" d="M 365.5,370.5 C 367.223,371.8 369.39,372.467 372,372.5C 374.777,372.369 377.277,371.702 379.5,370.5C 379.5,371.5 379.5,372.5 379.5,373.5C 374.5,373.5 369.5,373.5 364.5,373.5C 364.263,372.209 364.596,371.209 365.5,370.5 Z"/></g>
</svg>
